<svg width="411" height="338" viewBox="0 0 411 338" fill="none" xmlns="http://www.w3.org/2000/svg">
<path d="M209.881 2.59628C208.032 -0.865424 203.069 -0.865429 201.219 2.59628L90.5137 209.775C88.7658 213.046 91.1359 217 94.8447 217H130.276C133.654 217 136.928 215.84 139.552 213.713L195.97 167.986C198.594 165.86 201.869 164.699 205.246 164.699H211.075L271.548 213.713C274.172 215.84 277.447 217 280.824 217H316.256C319.965 217 322.335 213.046 320.587 209.775L209.881 2.59628Z" fill="#24AAE3"/>
<path fill-rule="evenodd" clip-rule="evenodd" d="M219.492 171.522L253.294 155.417L211.131 66.9216L151.722 95.2266L143.77 110.109L178.206 182.384L195.97 167.986C198.594 165.86 201.869 164.699 205.246 164.699H211.075L219.492 171.522Z" fill="black" fill-opacity="0.33"/>
<path d="M209.881 2.59628C208.032 -0.865424 203.069 -0.865429 201.219 2.59628L143.778 110.093L271.547 213.71C274.172 215.839 277.448 217 280.827 217H316.256C319.965 217 322.335 213.046 320.587 209.775L209.881 2.59628Z" fill="#24AAE3"/>
<path d="M56.6228 295.875H46.6384L41.0603 284.391H15.7478L10.1697 295.875H0.185303L20.9978 253.266C22.4041 250.453 24.8728 249.047 28.4041 249.047C31.9353 249.047 34.4041 250.453 35.8103 253.266L56.6228 295.875ZM38.1072 277.969L27.9353 257.109L18.7009 277.969H38.1072Z" fill="black"/>
<path d="M140.321 284.531C140.321 288.156 139.133 290.891 136.758 292.734C134.196 294.828 130.743 295.875 126.399 295.875H110.18C105.118 295.875 101.274 294.984 98.649 293.203C96.8678 292.016 95.6803 290.578 95.0865 288.891C94.774 287.922 94.6178 286.234 94.6178 283.828V260.062C94.6178 257.875 94.8678 256.203 95.3678 255.047C96.0865 253.578 97.4303 252.281 99.399 251.156C101.899 249.719 105.493 249 110.18 249H136.946V255.75H112.102C109.165 255.75 107.118 256.109 105.962 256.828C104.618 257.641 103.946 259.078 103.946 261.141V283.547C103.946 285.641 104.68 287.141 106.149 288.047C107.305 288.734 109.227 289.078 111.915 289.078H124.008C128.727 289.078 131.087 287.328 131.087 283.828V269.953H140.321V284.531Z" fill="black"/>
<path d="M228.613 285.234C228.613 292.328 223.503 295.875 213.285 295.875H199.175C194.238 295.875 190.55 295.094 188.113 293.531C185.175 291.656 183.707 288.922 183.707 285.328V259.734C183.707 256.172 185.207 253.406 188.207 251.438C190.582 249.812 194.238 249 199.175 249H213.378C223.535 249 228.613 252.578 228.613 259.734V285.234ZM219.425 283.547V261.703C219.425 259.516 218.785 258 217.503 257.156C216.222 256.281 214.113 255.844 211.175 255.844H201.378C198.378 255.844 196.238 256.281 194.957 257.156C193.675 258 193.035 259.516 193.035 261.703V283.359C193.035 285.297 193.738 286.781 195.144 287.812C196.3 288.625 198.378 289.031 201.378 289.031H211.175C214.05 289.031 216.144 288.625 217.457 287.812C218.769 287 219.425 285.578 219.425 283.547Z" fill="black"/>
<path d="M317.748 295.875H306.123L283.295 277.875C282.514 277.281 282.123 276.297 282.123 274.922C282.123 272.297 284.045 270.984 287.889 270.984L301.53 270.891C306.061 270.891 308.327 269.328 308.327 266.203V260.812C308.327 257.531 305.764 255.891 300.639 255.891H281.373V295.875H272.045V249.047H303.358C312.889 249.047 317.655 252.375 317.655 259.031V267.141C317.655 270.047 316.42 272.391 313.952 274.172C311.483 275.953 308.233 276.844 304.202 276.844H293.467L317.748 295.875Z" fill="black"/>
<path d="M410.915 295.875H400.931L395.353 284.391H370.04L364.462 295.875H354.478L375.29 253.266C376.697 250.453 379.165 249.047 382.697 249.047C386.228 249.047 388.697 250.453 390.103 253.266L410.915 295.875ZM392.4 277.969L382.228 257.109L372.993 277.969H392.4Z" fill="black"/>
<path d="M122.596 327.117C122.596 328.289 122.133 329.215 121.207 329.895C120.281 330.562 119.016 330.896 117.41 330.896H108.85V337.506H105.352V319.875H117.235C118.77 319.875 120.018 320.162 120.979 320.736C122.01 321.369 122.537 322.236 122.561 323.338C122.584 324.521 122.596 325.781 122.596 327.117ZM119.098 326.291V324.199C119.098 323.016 118.166 322.424 116.303 322.424H108.85V328.277H116.215C118.137 328.277 119.098 327.615 119.098 326.291Z" fill="#777777"/>
<path d="M155.828 337.506H151.469L142.909 330.756C142.616 330.533 142.469 330.164 142.469 329.648C142.469 328.664 143.19 328.172 144.631 328.172L149.746 328.137C151.446 328.137 152.295 327.551 152.295 326.379V324.357C152.295 323.127 151.334 322.512 149.412 322.512H142.188V337.506H138.69V319.945H150.432C154.006 319.945 155.793 321.193 155.793 323.689V326.73C155.793 327.82 155.33 328.699 154.405 329.367C153.479 330.035 152.26 330.369 150.748 330.369H146.723L155.828 337.506Z" fill="#777777"/>
<path d="M188.411 333.516C188.411 336.176 186.495 337.506 182.663 337.506H177.371C175.52 337.506 174.137 337.213 173.223 336.627C172.121 335.924 171.571 334.898 171.571 333.551V323.953C171.571 322.617 172.133 321.58 173.258 320.842C174.149 320.232 175.52 319.928 177.371 319.928H182.698C186.506 319.928 188.411 321.27 188.411 323.953V333.516ZM184.965 332.883V324.691C184.965 323.871 184.725 323.303 184.245 322.986C183.764 322.658 182.973 322.494 181.871 322.494H178.198C177.073 322.494 176.27 322.658 175.789 322.986C175.309 323.303 175.069 323.871 175.069 324.691V332.812C175.069 333.539 175.332 334.096 175.86 334.482C176.293 334.787 177.073 334.939 178.198 334.939H181.871C182.95 334.939 183.735 334.787 184.227 334.482C184.719 334.178 184.965 333.645 184.965 332.883Z" fill="#777777"/>
<path d="M211.114 333.129C211.114 333.938 211.038 334.529 210.885 334.904C210.698 335.443 210.293 335.947 209.672 336.416C208.711 337.143 207.317 337.506 205.489 337.506H203.151V334.939H205.172C205.958 334.893 206.561 334.717 206.983 334.412C207.405 334.096 207.616 333.434 207.616 332.426V319.91H211.114V333.129Z" fill="#777777"/>
<path d="M242.254 330H230.846V332.971C230.846 334.283 231.866 334.939 233.905 334.939H242.94V337.506H232.956C231.233 337.506 229.891 337.207 228.93 336.609C227.876 335.941 227.348 334.998 227.348 333.779V323.883C227.348 322.664 227.817 321.709 228.754 321.018C229.692 320.314 230.987 319.963 232.639 319.963H242.94V322.529H233.87C231.854 322.529 230.846 323.174 230.846 324.463V327.469H242.254V330Z" fill="#777777"/>
<path d="M275.61 322.477H266.399C265.391 322.477 264.671 322.611 264.237 322.881C263.71 323.244 263.446 323.748 263.446 324.393V332.707C263.446 333.539 263.68 334.119 264.149 334.447C264.618 334.775 265.426 334.939 266.575 334.939H275.575V337.506H265.274C263.575 337.506 262.262 337.16 261.337 336.469C260.411 335.766 259.948 334.793 259.948 333.551V323.83C259.948 322.377 260.44 321.34 261.424 320.719C262.268 320.18 263.645 319.91 265.555 319.91H275.61V322.477Z" fill="#777777"/>
<path d="M305.749 322.441H299.772V337.506H296.274V322.441H290.333V319.875H305.749V322.441Z" fill="#777777"/>
</svg>
